<svg width="16" height="16" viewBox="0 0 16 16" fill="none" xmlns="http://www.w3.org/2000/svg">
<mask id="mask0_82_13" style="mask-type:alpha" maskUnits="userSpaceOnUse" x="0" y="0" width="16" height="16">
<path fill-rule="evenodd" clip-rule="evenodd" d="M6.42668 0.333344C3.06384 0.333344 0.333008 3.03774 0.333008 6.37957C0.333008 9.7214 3.06384 12.4258 6.42668 12.4258C7.68042 12.4258 8.84667 12.0498 9.81595 11.405L13.7914 15.3476C14.2203 15.773 14.9146 15.773 15.3435 15.3476C15.774 14.9207 15.774 14.2274 15.3435 13.8005L11.3936 9.88313C12.1028 8.89488 12.5203 7.68532 12.5203 6.37957C12.5203 3.03774 9.78951 0.333344 6.42668 0.333344ZM2.53084 6.37957C2.53084 4.24979 4.27246 2.51857 6.42668 2.51857C8.58089 2.51857 10.3225 4.24979 10.3225 6.37957C10.3225 8.50935 8.58089 10.2406 6.42668 10.2406C4.27246 10.2406 2.53084 8.50935 2.53084 6.37957Z" fill="#006FFD"/>
</mask>
<g mask="url(#mask0_82_13)">
<rect width="16" height="16" fill="#2F3036"/>
</g>
</svg>
