<svg width="1200" height='1200'
  fill="none" xmlns="http://www.w3.org/2000/svg">
<path     d="M0.530403 -0.826267C480.892 -0.135276 961.253 -1.45248 1441.61 -0.826267C1441.12 463.433 1442.08 927.692 1441.61 1391.95C961.253 1392.84 480.892 1392.84 0.530403 1391.95C-0.0504989 927.692 -0.0504989 463.433 0.530403 -0.826267Z" stroke="#464646"  />
<path    d="M0.53125 1325.66C135.166 1326.46 273.108 1295.71 406.939 1319.53C518.651 1339.42 616.466 1350.54 729.809 1333.72C782.045 1325.96 831.266 1324.19 883.971 1323.37C937.817 1322.53 989.115 1310.05 1042.02 1302.04C1178.96 1281.31 1305.95 1327.45 1441.64 1325.79" stroke="#464646"  />
<path    d="M0.53125 1259.3C144.483 1253.17 312.096 1176.62 448.496 1244.36C501.76 1270.79 554.22 1311.51 615.505 1318.9C665.463 1324.95 706.059 1306.76 748.845 1285.13C795.116 1261.74 830.484 1257.06 881.693 1249.24C933.75 1241.31 971.621 1210.37 1017.24 1187.7C1158.31 1117.5 1300.99 1246 1441.62 1259.3" stroke="#464646"  />
<path    d="M0.53125 1192.95C98.525 1184.31 192.073 1154.66 287.765 1134.17C373.202 1115.88 424.433 1112.71 491.863 1168.96C540.48 1209.51 590.705 1278.22 656.839 1294.05C708.226 1306.31 739.506 1271.16 768.707 1237.32C780.169 1224.06 790.737 1209.25 805.103 1198.45C829.68 1180.27 851.709 1183.34 879.168 1174.7C932.365 1157.62 954.909 1108.3 991.371 1071.46C1047.05 1015.32 1101.92 1030.76 1169.86 1064.44C1259.77 1109.06 1340.87 1172.99 1441.53 1192.95" stroke="#464646"  />
<path    d="M0.53125 1126.63C106.211 1116.61 205.858 1078.91 308.186 1053.47C400.035 1030.67 450.686 1026.53 516.372 1095.93C561.571 1143.69 609.875 1233.22 680.075 1252.26C736.177 1267.38 759.658 1221.28 779.901 1181.39C788.145 1165.16 794.825 1146.22 807.717 1132.55C830.506 1108.36 850.167 1115.45 878.386 1104.72C933.773 1083.6 947.267 1020.07 976.134 975.695C1023.05 903.594 1086.26 927.736 1153.29 966.69C1247.5 1021.45 1331.91 1103.27 1441.5 1126.61" stroke="#464646"  />
<path   d="M0.53125 1060.35C106.322 1051 205.724 1011.89 307.918 986.044C347.374 976.067 400.438 957.972 441.503 970.928C471.308 980.386 495.326 1007.21 514.831 1029.12C558.666 1078.36 604.2 1171.45 675.227 1190.62C737.785 1207.51 755.659 1153.39 772.148 1108.78C779.119 1089.93 783.878 1066.93 796.925 1050.63C818.173 1024.13 836.784 1030.42 866.41 1020.55C918.781 1003.08 950.909 955.554 990.835 921.609C1007.52 907.422 1027.45 890.406 1049.26 883.863C1091.96 871.037 1136.24 897.748 1172.14 917.679C1261.27 967.236 1339.22 1037.93 1441.57 1060.2" stroke="#464646" />
<path   d="M0.53125 994.012C105.272 984.533 203.311 944.93 304.388 918.716C342.951 908.697 396.438 889.845 436.565 903.708C465.945 913.879 488.668 942.318 506.787 964.926C546.668 1014.59 589.074 1114.87 658.917 1134.41C728.759 1153.95 738.768 1066.61 747.191 1022.13C758.787 960.845 764.261 913.814 835.488 905.954C900.147 898.807 965.342 894.056 1030.14 887.729C1099.4 880.971 1160.19 873.672 1225.79 903.169C1298.42 935.904 1360.31 982.762 1441.62 993.991" stroke="#464646"  />
<path   d="M0.53125 927.697C104.044 917.98 200.54 877.859 300.12 851.235C337.611 841.215 391.568 821.457 430.533 836.4C459.399 847.477 480.58 877.816 497.135 901.18C529.465 946.678 573.77 1065.77 639.881 1079.71C716.448 1095.89 714.035 977.211 718.079 932.318C722.883 878.874 719.442 773.541 800.12 784.554C893.467 797.316 984.423 832.815 1074.53 857.972C1112.29 868.531 1151.32 879.911 1190.2 886.043C1222.68 891.182 1254.74 889.023 1287.01 896.106C1340.38 907.831 1385.67 927.589 1441.68 927.74" stroke="#464646"  />
<path   d="M0.53125 861.356C103.306 851.596 198.596 811.022 297.216 784.117C334.081 774.054 388.395 753.886 426.802 769.217C455.467 780.769 475.553 812.404 490.991 836.265C520.438 881.611 561.66 1007.37 627.056 1021.26C707.869 1038.53 696.966 893.055 698.664 850.106C700.652 799.297 689.123 662.783 775.097 679.518C890.473 701.975 1000.44 771.981 1106.32 818.299C1180.83 850.905 1247.08 878.631 1329.75 871.073C1367.08 867.662 1404.24 863.753 1441.7 861.421" stroke="#464646"  />
<path   d="M0.53125 795.043C103.731 785.434 199.535 744.19 298.556 717.004C336.002 706.726 389.981 686.557 428.812 702.58C456.897 714.176 476.312 744.147 491.371 767.792C519.858 812.469 557.125 932.291 621.292 946.175C699.624 963.126 694.441 823.395 697.904 779.906C701.993 728.643 695.67 599.255 779.119 612.254C892.64 629.983 1001.13 713.528 1100.85 763.149C1170.11 797.526 1242.95 833.695 1322.8 816.788C1364.18 808.021 1398.02 795.194 1441.59 794.978" stroke="#464646"  />
<path   d="M0.53125 728.731C106.144 718.539 204.316 676.022 305.661 647.928C385.625 625.774 445.323 611.392 492.734 686.43C519.321 728.494 544.859 822.468 603.776 836.418C674.847 853.325 692.408 747.885 704.853 703.143C718.727 653.284 734.814 554.818 809.214 569.393C903.566 587.877 986.523 676 1062.62 726.766C1129.78 771.573 1188.99 799.795 1270.87 776.086C1329.61 759.07 1378.97 731.992 1441.66 728.71" stroke="#464646"  />
<path   d="M0.53125 662.402C109.227 651.324 210.349 607.36 314.643 578.187C382.519 559.163 449.859 535.13 493.94 599.781C519.925 637.893 528.37 700.471 581.321 714.226C643.88 730.486 685.258 664.021 713.812 623.188C742.857 581.577 783.922 515.329 846.861 533.64C919.339 554.694 967.889 648.539 1014.58 699.132C1033.84 719.97 1060.61 749.38 1089.3 759.075C1126.12 771.492 1170.47 754.562 1204.76 742.254C1284.17 713.772 1356.22 672.443 1441.59 662.358" stroke="#464646"  />
<path   d="M0.53125 596.059C111.662 584.42 215.13 539.204 321.748 509.059C376.218 493.663 456.874 461.683 495.281 518.431C518.182 552.268 517.042 592.885 563.783 604.48C620.577 618.559 678.466 575.61 720.738 546.416C759.614 519.553 824.921 468.874 876.934 490.748C936.387 515.753 951.602 612.924 976.245 662.74C986.679 683.793 1002.1 714.089 1025.62 725.08C1061.84 742.009 1119.86 714.154 1152.75 701.543C1248.71 664.834 1338.19 611.261 1441.5 596.124" stroke="#464646"  />
<path   d="M0.53125 529.774C111.506 519.107 213.722 471.731 319.648 440.787C375.66 424.42 450.216 396.283 493.315 448.669C517.891 478.598 523.723 515.76 566.911 526.125C620.532 539.081 683.091 499.414 726.525 475.294C766.093 453.355 838.818 405.59 886.988 425.37C946.15 449.684 951.2 551.605 970.347 601.076C978.927 623.252 991.148 652.446 1014.85 663.999C1050.8 681.554 1112.58 652.511 1144.82 639.901C1243.13 601.378 1334.57 542.73 1441.48 529.774" stroke="#464646"  />
<path   d="M0.53125 463.44C104.334 452.06 195.424 399.566 292.278 365.254C363.595 339.968 417.641 331.784 483.663 368.472C527.99 393.11 568.743 432.431 621.493 439.73C678.98 447.763 723.464 414.574 767.322 384.278C802.489 359.964 863.886 310.32 911.654 328.826C972.425 352.449 985.182 464.519 1006.97 514.378C1016.57 536.404 1030.2 568.017 1054.33 579.72C1088.05 596.045 1146.87 572.292 1177.51 560.135C1266.36 524.938 1342.95 469.442 1441.41 463.353" stroke="#464646"  />
<path   d="M0.53125 397.104C94.2575 383.112 169.306 324.68 253 285.682C331.422 249.167 392.014 257.179 472.447 281.147C546.646 303.281 622.141 337.161 700.339 343.941C759.189 349.037 789.999 319.605 827.981 281.32C856.401 252.73 901.957 202.007 950.194 219.109C974.503 227.747 991.662 260.137 1002.41 279.895C1027.77 326.321 1044.59 376.288 1068.5 423.146C1080.18 446.1 1097.54 482.441 1123.68 494.836C1154.72 509.563 1204.12 493.54 1232.45 480.822C1305.33 448.151 1356.71 397.45 1441.44 396.953" stroke="#464646"  />
<path   d="M0.53125 330.769C86.7505 314.92 146.427 251.068 218.727 207.795C297.774 160.505 375.436 180.198 461.946 196.782C563.023 216.216 665.955 246.145 769.355 252.018C829.68 255.451 850.793 228.892 880.62 183.416C902.426 150.183 934.622 98.4239 985.317 116.606C1013 126.517 1036.39 165.709 1050.11 187.411C1083.47 239.947 1108.71 296.976 1140.73 350.247C1176.77 410.125 1226.1 469.183 1300.99 419.151C1354.81 383.198 1367.1 332.562 1441.53 330.618" stroke="#464646"  />
<path   d="M0.53125 264.434C85.2089 248.584 137.557 183.437 206.081 138.458C283.743 87.5402 368.801 111.898 455.601 125.869C566.71 143.748 679.337 170.545 792.077 177.477C852.044 181.148 870.879 154.653 896.528 107.687C917.016 70.1791 944.966 20.0391 998.945 43.0577C1032.26 57.2662 1063.09 102.612 1082.39 129.172C1125.98 189.094 1161.84 253.874 1204.2 314.552C1235.1 358.84 1316.54 477.194 1367.75 389.006C1390.76 349.361 1375.73 268.45 1441.68 264.455" stroke="#464646"  />
<path   d="M0.53125 198.096C80.0701 184.254 136.82 133.207 205.724 96.9305C282.872 56.3348 360.556 74.3437 443.648 86.1337C544.032 100.515 645.31 121.72 746.834 127.42C802.332 130.53 828.406 108.915 863.171 71.1263C893.4 38.2611 929.17 -0.412794 979.351 22.1308C1013.38 37.4189 1045.22 74.4085 1068.72 100.925C1113.79 151.929 1152.62 207.748 1196.72 259.508C1235.64 305.221 1314.84 406.343 1365.25 322.452C1389.83 281.554 1384.24 213.513 1441.91 198.268" stroke="#464646"  />
<path    d="M0.53125 131.829C74.2611 126.085 136.172 93.7596 205.143 72.015C275.968 49.6658 346.682 58.6487 419.317 66.3143C548.456 79.983 682.957 115.979 803.852 57.8929C846.123 37.6167 891.635 15.505 940.14 28.8281C1020.26 50.7887 1081.79 127.489 1143.88 176.203C1197.5 218.311 1255.3 257.438 1319.87 212.61C1363.55 182.379 1386.3 145.67 1441.66 131.958" stroke="#464646"  />
<path     d="M0.53125 65.557C69.7926 66.248 136.217 53.0328 204.584 45.4967C267.88 38.522 332.651 41.394 396.17 44.525C514.093 50.2905 629.715 58.9711 746.946 42.3657C798.221 35.0887 849.721 28.697 901.689 31.569C965.767 35.1103 1023.9 63.9591 1083.87 83.1773C1207.42 122.758 1317.97 70.2212 1441.55 65.5139" stroke="#464646"  />
<path     d="M1372.93 -0.865295C1374.07 75.8346 1396.63 149.252 1402.44 225.24C1406.69 281.037 1383.77 330.011 1371.83 383.606C1347.88 491.033 1346.01 600.598 1373 707.313C1385.75 757.777 1393.77 804.657 1391.79 856.913C1389.93 905.476 1375.45 948.21 1364.98 995.37C1336.53 1124.15 1373.91 1261.92 1372.97 1392.02" stroke="#464646"  />
<path     d="M1304.35 -0.823181C1315.17 94.3607 1362.96 179.223 1382.22 272.399C1390.97 314.787 1387.58 327.7 1361.35 358.06C1343.47 378.703 1326.99 395.848 1312.42 419.234C1278.5 473.671 1251.69 538.927 1247.4 603.038C1243.65 658.705 1269.74 692.586 1304.35 733.03C1335.97 769.955 1370.64 809.169 1360.79 861.295C1352.14 906.965 1313.87 920.44 1283.64 951.038C1238.38 996.967 1255.36 1061.86 1264.2 1119.03C1278.3 1209.99 1299.82 1299.86 1304.42 1391.95" stroke="#464646"  />
<path     d="M1235.81 -0.756165C1258.64 113.495 1329.36 210.428 1363.56 320.986C1378.13 368.103 1380.65 384.838 1334.67 402.221C1304.38 413.665 1276.58 434.913 1253.88 456.831C1203.03 505.675 1150.24 579.071 1139.71 649.941C1130.62 711.05 1187.86 736.315 1235.79 759.851C1270.42 776.867 1353.64 812.928 1331.34 865.659C1312.42 910.487 1239.29 895.674 1201.94 904.873C1120.95 924.825 1154.59 1005.2 1167.84 1066.35C1191.39 1174.75 1224.91 1281.44 1235.72 1391.87" stroke="#464646"  />
<path     d="M1167.17 -0.781921C1195.86 126.792 1283.1 232.578 1328.75 354.387C1350.09 411.264 1341.89 416.382 1288.53 425.019C1251.71 430.893 1215.61 451.191 1186.7 473.151C1126.13 519.383 1058.47 598.717 1047.41 676.129C1037.63 744.538 1113.88 759.696 1167.12 774.919C1198.09 783.773 1317.42 811.456 1285.99 869.412C1261.57 914.413 1161.09 878.331 1124.23 877.359C1025.54 874.811 1067.14 971.938 1082.6 1034.99C1111.65 1153.52 1154.34 1270.36 1167.1 1391.87" stroke="#464646"  />
<path     d="M1098.52 -0.671753C1122.36 116.861 1207.6 207.122 1251.7 316.86C1271.38 365.726 1269.71 378.574 1220.89 392.005C1186.26 401.528 1153.86 424.395 1127.45 447.219C1070.41 496.69 1002 577.126 990.451 654.085C981.157 715.928 1044.07 736.14 1092.94 753.414C1126.67 765.485 1218.54 794.744 1194.01 848.145C1174.19 891.224 1094.21 877.533 1057.72 885.825C971.884 905.259 1006.69 983.73 1021.8 1049.01C1048.16 1163.02 1085.88 1275.31 1098.36 1391.82" stroke="#464646"  />
<path     d="M1029.88 -0.781921C1047.75 88.4422 1119.9 142.447 1163.75 218.78C1185.38 256.396 1177.99 262.313 1148.29 285.893C1121.28 306.971 1096.82 330.926 1075.37 357.302C1025.5 418.887 969.509 500.532 958.516 580.47C951.925 628.3 973.329 655.853 1007.31 685.674C1094.05 761.812 1038.73 827.046 990.265 906.704C953.623 966.907 964.906 1024.82 977.195 1091.8C995.493 1191.76 1022.51 1290.46 1029.86 1391.95" stroke="#464646"  />
<path     d="M961.249 -0.932312C974.967 65.7914 1032.52 66.0074 1074.44 108.093C1110.63 144.543 1043.74 214.203 1024.05 251.776C984.932 326.489 940.493 410.056 931.958 494.918C928.182 532.577 925.054 569.718 918.955 607.204C901.394 714.696 915.112 821.605 922.016 929.853C926.484 1000.05 928.428 1070.9 935.957 1140.8C944.894 1224.58 959.953 1307.67 961.271 1392.08" stroke="#464646"  />
<path     d="M892.627 -0.932251C886.393 60.3715 960.704 18.5018 988.364 27.8086C1037.14 44.3276 982.644 151.042 970.825 183.864C941.288 265.812 900.603 350.674 892.403 438.127C887.533 490.103 873.055 517.332 837.084 554.408C802.632 589.756 778.569 620.376 784.959 671.984C796.532 765.138 831.275 857.019 855.516 947.409C894.057 1091.2 894.079 1243.8 892.671 1392" stroke="#464646"  />
<path    d="M823.99 -0.89032C813.802 61.3636 895.217 14.7865 921.246 21.2861C978.42 35.5378 925.536 152.51 912.957 186.714C882.683 269.071 839.339 350.824 827.006 438.234C819.521 491.159 805.848 519.879 772.088 561.489C740.653 600.25 714.311 633.979 719.651 685.997C729.28 779.497 769.899 871.83 796.375 961.4C838.825 1105.19 820.549 1244.58 823.967 1391.91" stroke="#464646"  />
<path     d="M755.357 -0.865295C750.71 64.3253 842.828 36.0379 879.09 51.4556C945.871 79.8942 889.524 178.123 868.276 222.044C830.45 300.385 773.276 379.482 758.396 466.266C749.169 519.947 742.913 570.26 727.809 623.077C713.354 673.671 694.877 727.05 700.06 780.256C707.947 861.015 743.158 939.939 766.283 1017.14C786.704 1085.26 798.702 1148.12 785.386 1218.75C774.393 1277.21 756.832 1331.77 755.357 1391.87" stroke="#464646"  />
<path     d="M686.802 -0.797424C707.334 72.9658 785.645 59.4051 844.115 89.7655C922.67 130.577 863.463 215.526 830.173 267.933C784.103 340.422 708.697 417.209 690.31 502.999C677.128 564.476 690.064 640.334 690.868 703.214C691.695 768.879 688.634 836.683 694.979 902.132C701.257 967.107 729.007 1028.76 748.065 1090.73C765.134 1146.27 779.768 1204.42 751.036 1258.88C726.169 1305.97 693.683 1336.4 686.802 1392" stroke="#464646"  />
<path     d="M618.182 -0.781921C643.183 78.8763 736.753 81.8346 801.97 119.947C887.586 169.957 829.786 245.686 785.481 303.319C732.999 371.662 643.719 445.231 621.645 531.086C604.262 598.846 635.966 696.794 646.534 764.857C658.532 842.161 666.307 918.991 675.333 996.447C681.478 1049.16 702.502 1096.04 717.918 1146.52C732.128 1192.97 748.505 1251.03 709.294 1290.42C671.781 1328.1 629.353 1333.17 618.115 1391.91" stroke="#464646"  />
<path     d="M549.594 -0.797424C575.936 78.105 668.791 85.4684 733.74 125.503C818.217 177.521 762.495 249.795 717.542 309.047C665.551 377.563 581.589 449.188 557.504 533.878C537.932 602.696 573.143 704.272 585.521 773.004C599.865 852.468 609.405 930.528 618.588 1010.38C624.285 1059.79 643.164 1103.73 657.307 1151.11C670.846 1196.45 687.693 1255.36 647.588 1292.43C607.483 1329.51 559.85 1330.59 549.527 1392.04" stroke="#464646"  />
<path     d="M480.888 -0.797424C500.438 70.4609 567.398 72.6203 621.087 111.834C685.88 159.34 645.328 231.678 618.428 289.613C585.652 360.137 537.995 431.417 522.624 508.333C508.95 576.719 531.36 661.279 539.939 729.795C549.122 803.213 554.439 876.22 561.232 949.703C565.901 1000.34 581.675 1047.56 593.248 1096.91C605.849 1150.52 616.238 1203.51 580.558 1251.13C543.335 1300.79 491.322 1326.38 480.821 1392.02" stroke="#464646"  />
<path     d="M412.24 -0.848145C418.496 58.4475 454.691 54.7118 489.433 92.2628C525.74 131.52 509.296 211.221 507.687 260.368C503.218 395.737 501.99 530.048 505.832 665.461C509.229 784.743 513.474 897.914 531.951 1015.84C541.737 1078.28 546.227 1133.87 514.39 1191.87C477.324 1259.35 423.478 1313.54 412.285 1391.93" stroke="#464646"  />
<path     d="M343.546 -0.865295C339.189 37.2471 354.092 45.3447 365.643 75.1652C374.401 97.7304 368.145 123.945 373.128 147.525C379.361 177.216 390.867 206.928 401.726 235.237C427.084 301.335 462.72 367.886 475.456 437.87C485.42 492.394 472.037 554.972 466.898 609.905C456.129 724.739 458.185 831.346 469.423 945.942C476.126 1015.04 476.528 1074.62 447.796 1140.07C410.931 1224.07 355.857 1299.64 343.613 1391.87" stroke="#464646"  />
<path     d="M275.023 -0.848145C274.866 80.4296 276.564 154.797 318.054 228.388C353.601 291.419 408.496 355.055 421.7 427.609C431.285 480.167 415.713 540.413 407.156 592.54C388.656 705.214 393.504 810.828 401.726 924.15C406.865 995.02 406.195 1053.99 378.915 1121.82C342.698 1211.49 289.009 1295.43 275.045 1391.93" stroke="#464646"  />
<path     d="M206.395 -0.89032C206.685 88.0099 203.155 173.326 241.83 256.072C270.875 318.045 313.66 379.932 324.764 448.253C333.322 500.941 320.184 559.438 313.437 611.953C299.093 723.419 302.489 829.896 308.968 941.75C312.923 1010.2 312.633 1069.73 289.91 1136.09C260.687 1221.34 218.549 1301.97 206.439 1391.82" stroke="#464646"  />
<path     d="M137.781 -0.823242C137.781 100.191 128.441 207.208 157.777 304.918C175.651 364.581 201.546 423.445 207.221 485.871C212.024 538.862 204.338 594.076 200.116 646.959C191.425 756.351 193.748 863.994 197.591 973.538C199.825 1036.87 201.278 1097.85 187.113 1160.26C169.574 1237.69 142.852 1312.3 137.781 1391.95" stroke="#464646"  />
<path     d="M69.1462 -0.756165C69.1462 115.654 60.9912 235.93 74.486 351.692C87.3668 460.808 92.1157 570.678 88.6957 680.452C85.4114 788.42 86.6179 896.063 87.9808 1003.97C89.6565 1134.17 67.8727 1262.5 69.1015 1392.11" stroke="#464646"  />
</svg>
